# xmcd
#
# Track frame offsets:
# 150
# 31487
# 51247
# 65337
# 110205
# 125200
# 151042
# 196295
# 221045
# 275980
#
# Disc length: 3977 seconds
#
#
# Revision: 5
# Processed by: cddbd v1.5.1PL2 Copyright (c) Steve Scherf et al.
# Submitted via: FreeRIP 2.944 
#
DISCID=a00f870a
DTITLE=Indigenous - Live At Pachyderm Studio 1998
DYEAR=1999
DGENRE=Bluesrock
TTITLE0=Holdin' Out
TTITLE1=Begin To Wonder
TTITLE2=Don't Take Your Time
TTITLE3=Blues From The Sky
TTITLE4=Blues This Morning
TTITLE5=Water
TTITLE6=I Wonder Why
TTITLE7=Bring Back That Day
TTITLE8=Red House
TTITLE9=Bonus Track
EXTD=
EXTT0=
EXTT1=
EXTT2=
EXTT3=
EXTT4=
EXTT5=
EXTT6=
EXTT7=
EXTT8=
EXTT9=
PLAYORDER=
